<svg xmlns="http://www.w3.org/2000/svg" xmlns:xlink="http://www.w3.org/1999/xlink" version="1.1" viewBox="0 0 1108 125"><title>HoYoverse Logo (without circle icon)</title><g id="logoGroup"><use id="use_E" transform="translate(368.23)" xlink:href="#group_E" fill="#ffffff"/><path id="path_S" d="m899.89 100.96c16.013 0 33.297 0.01 51.85 0.03 3.43 0 6.99-1.61 8.03-5.13 1.4067-4.78 0.0267-8.2267-4.14-10.34-19.133-9.7267-37.803-19.117-56.01-28.17-5.8133-2.8933-9.81-5.5067-11.99-7.84-4.1333-4.4333-6.26-10.197-6.38-17.29 0.19977-1.7582 0.1748-3.3863 0.52-5.03 2.7533-8.7667 8.0433-14.58 15.87-17.44 2.7733-1.0133 6.3033-1.51 10.59-1.49 22.307 0.086667 44.023 0.093333 65.15 0.02 0.36 0 0.54 0.18 0.54 0.54 0.0133 2.5733-0.59333 4.98-1.82 7.22-1.86 3.3867-4.5167 5.85-7.97 7.39-2.0333 0.91333-4.8133 1.3567-8.34 1.33-17.153-0.11333-33.84-0.11667-50.06-0.01-3.56 0.02667-6.0567 1.75-7.49 5.17-1.4 3.34-0.33 7.98 3.15 9.77 20.58 10.547 40.82 20.773 60.72 30.68 6.26 3.12 10.89 7.86 13.27 14.33 1.1933 3.24 1.5967 6.9233 1.21 11.05-0.3 3.2667-1.36 6.4533-3.18 9.56-2.62 4.48-6.52 7.8733-11.7 10.18-1.2733 0.56667-2.6867 1.0167-4.24 1.35-1.94 0.41-3.75 0.86-5.74 0.86-22.533-0.02-44.903-0.02-67.11 0-0.40667 0-0.60667-0.20333-0.6-0.61 0.0471-3.5696 1.447-13.93 15.87-16.13z" fill="#ffffff"/><path id="path_R" d="m771.58 111q-0.35 0.68-0.9 1.21-4.82 4.63-11.45 5.52-0.63 0.08-0.63-0.55 0.13-42.83-0.01-83.62-0.01-4.39 0.94-7.66 1.36-4.72 4.56-8.57 7.4-8.89 18.9-8.94 18.86-0.08 38.31-0.09 2.26 0 4.33 0.41 1.44 0.28 2.88 0.55 1.47 0.27 2.89 0.76 12.34 4.25 18.73 15.77 4.76 8.58 3.66 19.13-1.09 10.48-8.68 18.68-3.45 3.72-10.36 7.44-5.92 3.19-11.62 5.86a0.44 0.44 0 0 0-0.16 0.67l30.61 39.19q0.75 0.96-0.47 0.95-5.73-0.01-10.66-0.04-9.09-0.06-14.45-6.95-6.42-8.24-12.97-16.6c-1.46-1.86-2.78-3.92-4.39-5.59-1.54-1.59-3.86-5.81-4.13-7.99q-1.34-11.21 6.8-16.6 4.93-3.26 12.95-7.04 4.86-2.28 7.19-4.93c7.76-8.83 4.26-22.39-7.08-26.34q-3.12-1.08-6.52-1.04-17.63 0.24-36.03 0.01-2.23-0.03-4.37 1.01c-3.22 1.57-4.49 4.62-4.48 8.09q0.16 30.82 0.02 67.76-0.02 4.75-2.99 8.86-0.23 0.32-0.42 0.68z" fill="#ffffff"/><g id="group_E"><path id="path_E_topBar" d="m722.57 22.83c-2.01 1.17-5.09 1.87-7.49 1.87q-29.34 0.05-59.49 0c-9.42-0.02-16.39-6.31-17.09-15.81q-0.04-0.58 0.53-0.58h91.48a0.84 0.83-87.5 0 1 0.83 0.91q-0.85 9.04-8.77 13.61z" fill="#ffffff"/><path id="path_E_bottomPath" d="m729.77 110.46q1.34 3.04 1.58 6.46a0.73 0.72-1.8 0 1-0.73 0.77q-32.25 0-69.14 0-6.01 0-11.63-2.71-9.89-4.77-12.99-14.99-1.23-4.08-1.2-10.09 0.02-6.03 0.15-10.93 0.29-10.71 7.69-17.56 4.5-4.17 9.66-5.68 4.2-1.23 11.43-1.19 18.02 0.12 33.34 0.08 0.81 0 0.71 0.8-1.36 10.8-10.3 14.47-2.89 1.19-6.42 1.15-10.76-0.11-21.09-0.07c-4.64 0.02-8.73 3.61-8.63 8.43q0.13 6.05 0.01 12.57c-0.09 4.95 2.91 8.96 8.07 8.98q26.21 0.12 52.5-0.07c5.31-0.04 9.33 1.05 13.28 4.47q2.32 2.01 3.71 5.11z" fill="#ffffff"/></g><path id="path_V" d="m542.67 46.45c1.65 4.58 2.66 9.79 3.96 14.58q4.17 15.26 8.66 32.73 2.14 8.28 10.38 6.98 2.09-0.32 4.06-2.6 1.26-1.46 1.84-3.66 2.52-9.63 5.05-19.26 6.85-26.05 14.22-53.58 1.27-4.75 3.11-6.99 6.18-7.51 16.98-6.21 0.28 0.04 0.21 0.32-11.96 46.01-23.87 89.98-0.34 1.26-0.61 2.41-0.28 1.18-0.84 2.32-4.14 8.47-13.01 12.16-8.5 3.54-16.96 0.57-12.77-4.47-16.47-18.54-11.83-45.06-23.41-88.63-0.16-0.62 0.48-0.67 11.29-0.94 16.99 6.76 1.88 2.54 3.94 10.61 2.59 10.1 5.34 20.14 0.04 0.14 0.01 0.27-0.02 0.06-0.05 0.12-0.04 0.09-0.01 0.19z" fill="#ffffff"/><use id="use_O" transform="translate(259.08)" xlink:href="#path_O" fill="#ffffff"/><path id="path_Y" d="m284.6 48.52c1.54 9.29 8.08 17.18 16.28 21.68q1.17 0.64 2.32 0.97c1.2 0.35 2.02 1.09 3.18 1.36q7.73 1.78 12.36 1.11 14.17-2.05 22.2-13.31 3.12-4.38 4.54-9.43c1.89-6.7 1.21-14.69 1.06-21.72q-0.12-6.01 0.88-9.09c2.28-7.04 7.84-11.42 15.24-11.81q0.42-0.02 0.42 0.4 0.04 18.67-0.05 36.03c-0.01 2.5-0.34 5.45-0.93 7.87q-5.69 23.27-27.33 33.53-3.85 1.83-8.98 2.85a0.92 0.92 0 0 0-0.75 0.88c-0.15 5.4 0.76 11.71-1.09 16.74q-3.57 9.69-14.85 11.08-0.47 0.06-0.47-0.41l0.01-26.73a1 0.99-85.2 0 0-0.82-0.98q-10.26-1.69-18.12-6.91-16.41-10.88-20.75-29.18-1.52-6.41-1.38-15.51 0.23-15.7-0.01-29.04-0.01-0.57 0.57-0.55 8.63 0.34 13.4 7.64 2.35 3.61 2.45 7.97 0.21 9.7 0.13 19.66c-0.02 1.71 0.22 3.25 0.49 4.9z" fill="#ffffff"/><path id="path_O" d="m185.84 8.3516a54.611 54.616 0 0 0-54.611 54.615 54.611 54.616 0 0 0 54.611 54.617 54.611 54.616 0 0 0 54.609-54.617 54.611 54.616 0 0 0-54.609-54.615zm0 16.379a38.179 38.237 0 0 1 38.178 38.236 38.179 38.237 0 0 1-38.178 38.238 38.179 38.237 0 0 1-38.18-38.238 38.179 38.237 0 0 1 38.18-38.236z" fill="#ffffff"/><g id="group_H"><path id="path_H_rightPath" d="m87.64 71.7a0.67 0.66 1.4 0 0-0.64-0.66q-4.65-0.21-9.88-0.01-5.77 0.22-9.17-1.15-8.88-3.56-10.43-14.2a0.92 0.92 0 0 1 0.91-1.05h29.01a0.17 0.17 0 0 0 0.17-0.17q0.06-13.88-0.07-27.13-0.05-5.78 1.46-9.08 4.04-8.83 14.05-9.97 1.07-0.13 1.07 0.95v108.03a0.4 0.39 3.3 0 1-0.44 0.39q-10.99-1.49-14.7-10.07-1.47-3.41-1.41-9.16 0.12-13.58 0.07-26.72z" fill="#ffffff"/><path id="path_H_leftBar" d="m21.65 110.97q-1.48 2.07-3.33 3.31-4.16 2.76-8.97 3.4-1.04 0.14-1.04-0.9v-107.09q0-1.67 1.65-1.43 9.84 1.41 13.75 10.26 1.44 3.27 1.41 9.72-0.2 38.75-0.02 71.78 0.03 6.06-3.45 10.95z" fill="#ffffff"/></g></g></svg>